**ABCDEFGHIJKLMNOPQRSTUVWXYZabcdefghijklmnopqrstuvwxyz**************************
**PARASOLID !"#$%&'()*+,-./:;<=>?@[\]^_`{|}~0123456789**************************
**PART1;
MC=unknown;
MC_MODEL=unknown;
MC_ID=unknown;
OS=unknown;
OS_RELEASE=unknown;
FRU=Parasolid 36.0.180;
APPL=Onshape;
SITE=unknown;
USER=unknown;
FORMAT=text;
GUISE=transmit;
KEY=BTGapi::writeModels_.xmt;
FILE=BTGapi::writeModels_.xmt;
DATE=2024-09-15T00:32:12 (UTC);
**PART2;
SCH=SCH_3600180_36001;
USFLD_SIZE=0;
**PART3;
**END_OF_HEADER*****************************************************************
T51 : TRANSMIT FILE created by modeller version 360018023 SCH_3600180_36001_1300
6231 0 10 21 CCCCI7 lattice222 0 CCCI4 mesh1006 0 I8 polyline1008 0 CCCCCCCCCCA1
6 mesh_offset_data206 0 Z1 8 2 3 0 0 0 0 0 0 0 0 1e3 1e-8 0 0 0 1 0 1 4 0 81 255
 1 2 2 5 1 6 0 0 0 7 70 11 CI9 list_type0 0 1 uI10 notransmit0 0 1 lCCCDCCDI12 f
inger_index0 0 1 dI12 finger_block1012 0 CZ3 0 4 T1 0 0 3 20 1 8 8 11 255 4 6 9
 1 10 11 1 12 0 0 0 81 1 9 8 13 4 0 0 14 0 15 12 36 CCCI7 lattice222 0 CCCI4 mes
h1006 0 I8 polyline1008 0 CCCCCCCDI5 owner1040 0 CCCI16 boundary_lattice222 0 CC
CI13 boundary_mesh1006 0 I17 boundary_polyline1008 0 CCCA16 index_map_offset0 0
 1 dA9 index_map82 0 A17 node_id_index_map82 0 A20 schema_embedding_map82 0 A5 c
hild12 0 A14 lowest_node_id0 0 1 dA16 mesh_offset_data206 0 Z10 274 16 17 0 0 0
 0 0 0 0 1e3 1e-8 4 0 18 1 0 1 2 19 0 20 21 0 0 0 22 23 0 0 0 0 0 0 0 0 100 10 C
CCCCCCCCA9 precision229 0 Z11 7 4 0 0 1 0 0 0 1 0 0 0 1 0 0 0 1 0 ?0 11 12 3 14
 1 18 24 1 0 4 0 0 81 1 14 5 13 12 0 0 0 9 25 12 18 57 26 27 0 0 0 0 0 0 0 1e3 1
e-8 12 10 0 1 0 1 2 28 0 29 30 0 0 0 31 32 0 0 0 0 0 0 0 0 100 24 4 12 0 0 .7071
06781186549 0 .707106781186548 0 1 0 -.707106781186548 0 .707106781186549 .01225
27843644868 -1734723475976815e-33 -.0115464950534383 1 3 ?0 81 1 26 57 5 18 33 0
 0 0 34 70 27 0 4 T18 0 0 3 20 1 35 35 13 255 28 39 0 18 0 36 0 0 37 0 51 255 29
 38 0 36 38 0 0 +0 0 .226976331360947 0 0 -1 .00886962587972431 -1 0 0 31 255 30
 33 0 39 40 0 0 +0 0 .02697633136094675 0 0 -1 -1 0 0 .00886962587972431 19 9 CC
CCCCI5 frame230 0 CA5 owner12 0 Z31 13 0 18 37 0 41 0 V0 16 255 32 7 0 ?42 0 39
 40 0 0 18 17 255 42 0 43 42 42 0 44 32 0 0 +16 39 28 0 ?45 32 0 30 0 0 18 31 40
 9 0 32 0 30 0 +0 0 .226976331360947 0 0 -1 -1 0 0 .00886962587972431 17 45 0 46
 45 45 0 47 39 0 0 +15 255 46 27 0 45 48 0 17 47 0 49 47 47 0 45 39 0 0 -15 49 3
6 0 47 36 0 14 255 36 35 0 ?50 0 43 28 29 +0 0 50 0 41 14 50 1 0 ?48 36 51 28 52
 +0 0 48 36 41 15 43 34 0 42 36 49 13 41 14 0 0 0 0 0 0 31 36 14 48 23 0 ?0 50 4
6 28 38 -0 0 0 50 41 15 51 6 0 44 50 0 50 255 52 3 0 50 0 38 0 +0 0 .22697633136
0947 0 0 1 1 0 0 50 38 32 0 48 52 29 0 +0 0 .02697633136094675 0 0 1 1 0 0 17 44
 0 51 44 44 0 42 32 0 0 -19 37 40 0 18 0 31 28 0 S0 74 4 CI16 index_map_offset0
 0 1 dCCZ20 35 3 0 0 53 33 26 0 0 0 0 0 0 0 0 0 0 0 0 0 0 0 0 0 81 1 53 55 54 18
 0 33 0 0 55 81 1 33 56 56 18 53 26 0 0 57 80 7 CCCCCDI12 legal_owners0 17 1 lCZ
1 56 5 58 8038 0 0 0 0 0 0 0 0 0 TTTTTTTTTTTTTFTFT10 98 255 6 57 80 97 114 116 3
2 50 79 255 14 58 SDL/TYSA_UNAME80 1 54 59 60 8040 0 0 0 0 3 5 0 0 0 TTTFFFFFFFF
FFFFFF2 83 255 3 55 .647058823529412 .647058823529412 .647058823529412 79 17 60
 SDL/TYSA_COLOUR_280 1 5 61 62 8017 0 0 0 0 0 0 0 0 0 TTTTTTTTTTTTTFTFT3 84 255
 6 34 Part 279 13 62 SDL/TYSA_NAME80 1 13 63 64 9000 0 0 0 0 3 5 0 0 0 FTFFFFFFF
FFFFFFFF3 84 17 25 MOHf9rK65MWS2lITG79 14 64 BTI/InstanceId81 1 16 274 5 10 65 0
 0 0 66 70 17 0 4 T10 0 0 3 20 1 67 67 13 19 119 0 10 0 68 0 0 69 0 52 255 20 19
5 0 68 70 0 0 +0 0 -.0283532906123146 0 0 1 .01159715714275882 .866025403784439
 .5 1 0 0 31 21 202 0 23 71 0 0 +0 0 -.0283532906123146 0 0 -1 -1 0 0 .011597157
14275882 19 22 140 0 10 69 0 72 0 V0 16 23 179 0 ?73 0 74 21 0 0 10 17 73 0 75 7
3 73 0 76 23 0 0 +16 74 164 0 ?77 23 78 71 0 0 10 17 77 0 79 77 77 0 80 74 0 0 +
16 78 159 0 ?81 74 82 83 0 0 10 31 71 201 0 74 83 21 0 +0 0 .02597633136094675 0
 0 -1 -1 0 0 .00886962587972431 31 83 200 0 78 84 71 0 +0 0 .0257342042294358 0
 0 -1 -1 0 0 .00982650298672959 31 84 199 0 82 85 83 0 +0 0 .01097092371427346 0
 0 -1 -1 0 0 .0371306191110484 16 82 154 0 ?86 78 87 84 0 0 10 31 85 198 0 87 88
 84 0 +0 0 .00988930438856978 0 0 -1 -1 0 0 .0380642478683461 16 87 149 0 ?89 82
 90 85 0 0 10 31 88 197 0 90 91 85 0 +0 0 -.00749890889242346 0 0 -1 -1 0 0 .044
3930399296999 16 90 144 0 ?92 87 93 88 0 0 10 31 91 196 0 93 0 88 0 +0 0 -.00992
929638365089 0 0 -1 -1 0 0 .0435084512251602 16 93 142 0 ?94 90 0 91 0 0 10 17 9
4 0 95 94 94 0 96 93 0 0 +15 95 225 0 94 68 97 17 96 0 98 96 96 0 94 93 0 0 -15
 98 218 0 96 99 100 14 99 147 0 ?0 101 98 19 102 -0 0 0 101 72 15 100 146 0 92 9
9 0 17 92 0 100 92 92 0 103 90 0 0 +17 103 0 104 103 103 0 92 90 0 0 -15 104 151
 0 103 101 0 14 101 152 0 ?99 105 106 19 107 +0 0 99 105 72 14 105 157 0 ?101 10
8 109 19 110 -0 0 101 108 72 15 106 219 0 89 101 104 52 107 189 0 101 102 110 0
 +0 0 -.00749890889242346 0 0 -1 .0443930399296999 .3420201433256685 .9396926207
85909 -1 0 0 13 72 139 0 0 0 0 0 0 22 68 14 68 185 0 ?111 0 95 19 20 +0 0 111 0
 72 14 111 182 0 ?112 68 75 19 70 -0 0 112 68 72 14 112 172 0 ?113 111 114 19 11
5 -0 0 113 111 72 15 75 181 0 73 111 0 53 255 70 194 0 111 115 20 0 --3686240849
30672e-31 0 -.00491124260355035 .0261538461538461 0 0 -1 -1 0 0 50 115 193 0 112
 116 70 0 +-.004434812939862145 0 .02597633136094675 0 0 -1 -1 0 0 54 255 116 19
2 0 113 117 115 0 -0 0 .02396449704141995 0 0 -1 .00886962587972427 .00201183431
9526775 -1 0 0 14 113 167 0 ?108 112 118 19 116 -0 0 108 112 72 52 117 191 0 108
 110 116 0 -0 0 .0257342042294358 0 0 -1 .00982650298672959 .879648572866617 .47
5624209070275 -1 0 0 14 108 162 0 ?105 113 119 19 117 -0 0 105 113 72 54 110 190
 0 105 107 117 0 -0 0 .00920121652625784 0 0 -1 .03617374200404315 .002011834319
526555 -1 0 0 15 119 221 0 120 108 121 17 120 0 119 120 120 0 86 82 0 0 -15 121
 161 0 81 108 0 17 81 0 121 81 81 0 122 78 0 0 +17 122 0 118 122 122 0 81 78 0 0
 -15 118 222 0 122 113 79 15 79 166 0 77 113 0 17 86 0 123 86 86 0 120 82 0 0 +1
5 123 156 0 86 105 0 15 114 223 0 80 112 0 17 80 0 114 80 80 0 77 74 0 0 -54 102
 188 0 99 0 107 0 -0 0 -.00818699675473547 0 0 -1 .0425025340653969 .00201183431
952662 -1 0 0 17 89 0 106 89 89 0 124 87 0 0 +17 124 0 109 124 124 0 89 87 0 0 -
15 109 220 0 124 105 123 15 97 184 0 76 68 0 17 76 0 97 76 76 0 73 23 0 0 -19 69
 118 0 10 0 22 19 0 S0 74 20 67 3 0 0 125 65 16 0 0 0 0 0 0 0 0 0 0 0 0 0 0 0 0
 0 81 1 125 272 54 10 0 65 0 0 126 81 1 65 273 56 10 125 16 0 0 127 98 6 127 80
 97 114 116 32 49 83 3 126 .615686274509804 .811764705882353 .929411764705882 84
 6 66 Part 184 17 15 MQatdlEYokPKmSzIU74 20 8 3 0 0 6 2 9 0 0 0 0 0 0 0 0 0 0 0
 0 0 0 0 0 0 81 1 6 1 56 1 0 2 0 0 128 98 10 128 65 115 115 101 109 98 108 121 3
2 49 84 10 7 Assembly 11 0 
